<?xml version="1.0" encoding="UTF-8"?>
<svg id="vriações_logo" xmlns="http://www.w3.org/2000/svg" viewBox="0 0 1172.02 295.93">
  <defs>
    <style>
      .cls-1 {
        fill: none;
      }

      .cls-2 {
        fill: #213a36;
      }
    </style>
  </defs>
  <g>
    <path class="cls-2" d="M270.62,75.95c-34.99-6.55-73.12,9.52-91.93,40.18-1.06,1.72-3.54,1.72-4.6.02-16.34-26.15-46.75-42.69-77.72-41.59-4.75.13-9.52.64-14.21,1.52-8.01,1.5-11.85,10.73-7.48,17.59l69.14,108.07c2.13,3.32,5.81,5.34,9.74,5.34h45.61c3.96,0,7.63-2.02,9.76-5.34l69.21-108.18c4.4-6.88.48-16.12-7.54-17.62ZM206.69,161.85c-11.26,7.1-20.8,16.65-27.89,27.89-1.1,1.74-3.63,1.74-4.73,0-7.1-11.24-16.65-20.78-27.91-27.89-1.74-1.08-1.74-3.61,0-4.71,11.26-7.1,20.8-16.65,27.91-27.91,1.1-1.74,3.63-1.74,4.73,0,7.08,11.26,16.63,20.8,27.89,27.91,1.72,1.1,1.72,3.63,0,4.71Z"/>
    <g>
      <path class="cls-2" d="M683.36,97.4l.05,15.2c0,.18.04.35.12.51,2.01,4.11,3.55,9.83,4.1,17.8.09,1.27-1.62,1.77-2.24.65-2.79-5.02-8.38-11.39-18.77-11.39-17.14,0-28.33,10.35-28.33,36.79s12.65,37.74,27.38,37.74c12.83,0,18.62-11.95,19.9-15.05.18-.44.62-.73,1.1-.73h.27c.53,0,1,.35,1.15.86l3.45,10.29c.22.76.92,1.29,1.72,1.29h6.66c1.65,0,2.98-1.33,2.98-2.98v-90.99c0-1.65-1.33-2.98-2.98-2.98h-13.58c-1.65,0-2.99,1.34-2.98,2.99ZM671.69,185.05c-1.57,0-15.21-1.25-15.21-29.32s13.64-26.5,13.64-26.5c0,0,15.92-.91,15.92,28.07s-12.78,27.75-14.35,27.75Z"/>
      <path class="cls-2" d="M464.75,123.35c-3.6-1.85-8.16-3.14-13.88-3.14-14.11,0-20.77,8.37-23.59,13.71-1.04,1.98.42,4.35,2.65,4.35h6.77c1.4,0,2.61-.97,2.91-2.34.85-3.88,3.77-11.13,13.89-10.23,12.53,1.11,10.67,25.35,10.09,30.08-.07.54-.52.94-1.07.94h-.61c-.32,0-.63-.14-.83-.4-2.23-2.8-6.93-6.96-15.14-6.96-17.26,0-22.69,11.91-22.69,22.34s5.65,23.02,20.06,23.02c10.55,0,16.15-9.01,18.39-13.61.18-.37.55-.6.97-.6.47,0,.89.31,1.03.76l2.67,7.97c.38,1.26,1.54,2.12,2.86,2.12h4.07c1.65,0,2.98-1.34,2.98-2.98v-45.63c0-5.81-.82-13.89-11.53-19.4ZM449.03,185c-7.54,0-11.52-6.83-11.52-13.71s3.2-15.55,12.53-15.55c6.83,0,9.9,3.51,9.9,14.02s-3.37,15.24-10.9,15.24Z"/>
      <path class="cls-2" d="M588.86,123.35c-3.6-1.85-8.16-3.14-13.88-3.14-14.11,0-20.77,8.37-23.59,13.71-1.04,1.98.42,4.35,2.65,4.35h6.77c1.4,0,2.61-.97,2.91-2.34.85-3.88,3.77-11.13,13.89-10.23,12.53,1.11,10.67,25.35,10.09,30.08-.07.54-.52.94-1.07.94h-.61c-.32,0-.63-.14-.83-.4-2.23-2.8-6.93-6.96-15.14-6.96-17.26,0-22.69,11.91-22.69,22.34s5.65,23.02,20.06,23.02c10.55,0,16.15-9.01,18.39-13.61.18-.37.55-.6.97-.6.47,0,.89.31,1.03.76l2.67,7.97c.38,1.26,1.54,2.12,2.86,2.12h4.07c1.65,0,2.98-1.34,2.98-2.98v-45.63c0-5.81-.82-13.89-11.53-19.4ZM573.14,185c-7.54,0-11.52-6.83-11.52-13.71s3.2-15.55,12.53-15.55c6.83,0,9.9,3.51,9.9,14.02s-3.37,15.24-10.9,15.24Z"/>
      <path class="cls-2" d="M855.99,187.82l-17.6-87.72c-.28-1.39-1.5-2.39-2.93-2.39h-34.65c-1.43,0-2.65,1.01-2.92,2.4l-17.36,87.72c-.36,1.85,1.04,3.56,2.92,3.56h14.08c1.47,0,2.71-1.06,2.95-2.5l4.38-27.25c.23-1.45,1.48-2.51,2.95-2.51h20.29c1.44,0,2.68,1.03,2.93,2.45l4.97,27.36c.26,1.42,1.5,2.44,2.93,2.44h14.13c1.88,0,3.29-1.72,2.92-3.57ZM825.76,152.14h-15.86c-1.83,0-3.23-1.64-2.94-3.45l7.15-44.44c.23-1.44,1.48-2.51,2.95-2.51h.64c1.44,0,2.68,1.03,2.93,2.45l8.07,44.44c.33,1.83-1.07,3.51-2.93,3.51Z"/>
      <path class="cls-2" d="M864.09,127.11v61.3c0,1.65,1.33,2.98,2.98,2.98h13.05c1.65,0,2.98-1.33,2.98-2.98v-46.5s-.2-13.35,10.46-13.35,9.43,14.79,9.36,15.71c0,.04,0,.07,0,.11v44.03c0,1.65,1.33,2.98,2.98,2.98h13.05c1.65,0,2.98-1.33,2.98-2.98v-42.24s0-.05,0-.07c.05-.96,1.12-25.89-21.83-25.89-12.61,0-17.17,11.1-18.3,14.06-.21.54-.72.89-1.3.89h0c-.6,0-1.14-.39-1.33-.96l-3.1-8.91c-.24-.74-.94-1.24-1.72-1.23l-7.3.06c-1.64.01-2.96,1.34-2.96,2.98Z"/>
      <rect class="cls-2" x="1079.87" y="94.41" width="19.29" height="96.79" rx="2.98" ry="2.98"/>
      <path class="cls-2" d="M1070.13,163.82c-.64,0-1.21.36-1.5.92-4.08,7.92-11.34,16.36-23.05,16.36-9.14,0-16.77-6.17-20.01-9.24-.86-.82-.69-2.25.36-2.84l42.58-24.11c1.38-.78,1.92-2.51,1.2-3.93-.23-.45-.47-.91-.72-1.35-10.12-18.19-32.92-24.8-50.94-14.78-18.01,10.02-24.41,32.89-14.29,51.07,10.12,18.18,32.13,23.23,50.94,14.77,13.66-6.15,16.52-19.94,17.11-24.98,0-.07.01-.14.01-.2,0-.92-.74-1.68-1.68-1.68ZM1018.16,164.53c-8.04-9.39-7.67-20.23-7.67-20.23,0,0-.72-15.95,14.42-15.95,12.6,0,21.72,14.03,24.43,18.73.47.82.18,1.87-.65,2.32l-28.43,15.53c-.7.38-1.58.21-2.1-.39Z"/>
      <path class="cls-2" d="M989.21,124.06h-6.25c-.79,0-1.49.52-1.71,1.29l-3.27,11.78c-.17.57-.69.96-1.28.96-.54,0-1.02-.32-1.23-.82-1.32-3.15-4.73-17.07-19.11-17.07s-26.37,13.55-26.37,39.02,10.77,35.43,27.27,35.43c9.54,0,14.88-5.58,17.68-10.29.73-1.22,2.59-.63,2.48.78-2.27,28.58-18.1,26.1-19.46,26.03-14.68-.75-19.52-12.53-19.52-12.53-.15-.45-.43-.82-.79-1.07-.36-.26-.81-.41-1.28-.41-1.37,0-2.4,1.26-2.14,2.61,2.78,14.8,11.59,21.65,26.15,21.65,31.8,0,31.8-32.91,31.8-32.91v-61.47c0-1.65-1.33-2.98-2.98-2.98ZM962.15,186.72c-1.51,0-14.65-1.21-14.65-28.23,0-12.47,2.8-19.44,5.81-23.33,3.37-4.34,9.78-4.82,13.83-1.1,4.17,3.82,8.81,11.36,8.81,25.94,0,26.49-12.3,26.72-13.81,26.72Z"/>
      <g>
        <path class="cls-2" d="M713.59,124.18c-1.45,0-2.63,1.18-2.63,2.63h0c0,1.45,1.18,2.63,2.63,2.63h5.93c.99,0,1.79.8,1.79,1.79v57.15c0,1.65,1.33,2.98,2.98,2.98h12.88c1.65,0,2.98-1.33,2.98-2.98v-58.94h.02v-5.26h-26.59Z"/>
        <path class="cls-2" d="M742.56,108.14c-3.96,2.69-7.38,6.11-10.07,10.07-.84,1.23-2.65,1.23-3.49,0-2.7-3.96-6.12-7.38-10.08-10.07-1.23-.84-1.23-2.65,0-3.49,3.96-2.7,7.38-6.12,10.08-10.08.84-1.23,2.65-1.23,3.49,0,2.7,3.96,6.12,7.38,10.07,10.08,1.23.84,1.23,2.65,0,3.49Z"/>
      </g>
      <path class="cls-2" d="M392.35,124.06h18.13c2.17,0,3.62-2.24,2.72-4.21-3.89-8.53-15.54-25.45-43.25-25.45-36,0-48.87,27.88-48.87,50.56s14.56,49.79,49.03,49.79c29.44,0,41.93-19.86,44.95-27.81.53-1.39-.49-2.88-1.97-2.88h0c-.7,0-1.36.35-1.75.93-2.37,3.46-11.77,15.41-28.71,15.41-19.82,0-53.42-27.78-53.42-53.42,0-17.3,18.39-22.37,28.09-22.37,13.1,0,25.99,2.7,32.31,17.6.47,1.11,1.55,1.85,2.75,1.85Z"/>
      <path class="cls-2" d="M526.09,138.01h8.42c2.07,0,3.53-2.07,2.8-4.01-1.97-5.25-7.85-13.79-25.3-13.79-25.2,0-26.82,17.18-26.82,20.19,0,27.28,40.45,17.95,40.45,36.76,0,12.25-7.94,14.26-13.48,14.26-5.11,0-10.48-2.81-11.3-12.78-.13-1.54-1.43-2.71-2.97-2.71h-10.57c-2.14,0-3.58,2.18-2.75,4.14,2.36,5.54,9.05,14.66,27.51,14.66,26.51,0,30.9-16.95,30.9-22.27,0-23.27-41.76-20.57-41.76-36.37,0-13.41,10.86-12.02,10.86-12.02,0,0,9.76-.69,11.04,11.27.16,1.52,1.43,2.68,2.96,2.68Z"/>
    </g>
  </g>
  <rect class="cls-1" y="0" width="1172.02" height="295.93"/>
</svg>